
    <svg width="800" height="200" xmlns="http://www.w3.org/2000/svg">
        <style>
            .text { font-family: 'Segoe UI', Ubuntu, Sans-Serif; fill: white; }
            .label { fill: #8b949e; font-size: 12px; }
            .value { font-weight: bold; font-size: 24px; }
            .title { font-weight: bold; font-size: 16px; fill: #1DB954; }
        </style>
        <rect width="100%" height="100%" fill="#0d1117" rx="10" />
        <text x="20" y="30" class="text title">Atividade Privada & Pública</text>
        
        <g transform="translate(20, 50)">
            <rect width="240" height="70" fill="#161b22" rx="6" stroke="#30363d" />
            <text x="120" y="25" text-anchor="middle" class="text label">Commits (30 dias)</text>
            <text x="120" y="55" text-anchor="middle" class="text value" fill="#2f81f7">106</text>
        </g>
        
        <g transform="translate(280, 50)">
            <rect width="240" height="70" fill="#161b22" rx="6" stroke="#30363d" />
            <text x="120" y="25" text-anchor="middle" class="text label">Commits (7 dias)</text>
            <text x="120" y="55" text-anchor="middle" class="text value" fill="#1DB954">58</text>
        </g>
        
        <g transform="translate(540, 50)">
            <rect width="240" height="70" fill="#161b22" rx="6" stroke="#30363d" />
            <text x="120" y="25" text-anchor="middle" class="text label">Total Repositórios</text>
            <text x="120" y="55" text-anchor="middle" class="text value" fill="#a371f7">40</text>
        </g>
        
        <rect x="40" y="137.02127659574467" width="20" height="22.97872340425532" fill="#1DB954" rx="2" /><text x="50.0" y="175" font-family="Arial" font-size="9" fill="#666" text-anchor="middle">22</text><rect x="64" y="160" width="20" height="0" fill="#2b303b" rx="2" /><rect x="88" y="157.4468085106383" width="20" height="2.5531914893617023" fill="#1DB954" rx="2" /><rect x="112" y="160" width="20" height="0" fill="#2b303b" rx="2" /><rect x="136" y="160" width="20" height="0" fill="#2b303b" rx="2" /><rect x="160" y="160" width="20" height="0" fill="#2b303b" rx="2" /><text x="170.0" y="175" font-family="Arial" font-size="9" fill="#666" text-anchor="middle">27</text><rect x="184" y="158" width="20" height="2" fill="#1DB954" rx="2" /><rect x="208" y="148.51063829787233" width="20" height="11.48936170212766" fill="#1DB954" rx="2" /><rect x="232" y="157.4468085106383" width="20" height="2.5531914893617023" fill="#1DB954" rx="2" /><rect x="256" y="151.06382978723406" width="20" height="8.936170212765957" fill="#1DB954" rx="2" /><rect x="280" y="160" width="20" height="0" fill="#2b303b" rx="2" /><text x="290.0" y="175" font-family="Arial" font-size="9" fill="#666" text-anchor="middle">01</text><rect x="304" y="157.4468085106383" width="20" height="2.5531914893617023" fill="#1DB954" rx="2" /><rect x="328" y="160" width="20" height="0" fill="#2b303b" rx="2" /><rect x="352" y="160" width="20" height="0" fill="#2b303b" rx="2" /><rect x="376" y="160" width="20" height="0" fill="#2b303b" rx="2" /><rect x="400" y="160" width="20" height="0" fill="#2b303b" rx="2" /><text x="410.0" y="175" font-family="Arial" font-size="9" fill="#666" text-anchor="middle">06</text><rect x="424" y="160" width="20" height="0" fill="#2b303b" rx="2" /><rect x="448" y="160" width="20" height="0" fill="#2b303b" rx="2" /><rect x="472" y="157.4468085106383" width="20" height="2.5531914893617023" fill="#1DB954" rx="2" /><rect x="496" y="160" width="20" height="0" fill="#2b303b" rx="2" /><rect x="520" y="156.17021276595744" width="20" height="3.829787234042553" fill="#1DB954" rx="2" /><text x="530.0" y="175" font-family="Arial" font-size="9" fill="#666" text-anchor="middle">11</text><rect x="544" y="157.4468085106383" width="20" height="2.5531914893617023" fill="#1DB954" rx="2" /><rect x="568" y="160" width="20" height="0" fill="#2b303b" rx="2" /><rect x="592" y="158" width="20" height="2" fill="#1DB954" rx="2" /><rect x="616" y="160" width="20" height="0" fill="#2b303b" rx="2" /><rect x="640" y="158" width="20" height="2" fill="#1DB954" rx="2" /><text x="650.0" y="175" font-family="Arial" font-size="9" fill="#666" text-anchor="middle">16</text><rect x="664" y="158" width="20" height="2" fill="#1DB954" rx="2" /><rect x="688" y="156.17021276595744" width="20" height="3.829787234042553" fill="#1DB954" rx="2" /><rect x="712" y="100.0" width="20" height="60.0" fill="#1DB954" rx="2" /><rect x="736" y="153.61702127659575" width="20" height="6.382978723404255" fill="#1DB954" rx="2" />
    </svg>
    