
<svg width="800" height="180" xmlns="http://www.w3.org/2000/svg">
    <style>
        .bg { fill: #0d1117; }
        .card { fill: #161b22; stroke: #30363d; }
        .text-main { font-family: 'Segoe UI', sans-serif; fill: #e6edf3; font-weight: bold; }
        .text-sub { font-family: 'Segoe UI', sans-serif; fill: #7d8590; font-size: 12px; }
        .num { font-size: 24px; font-weight: bold; font-family: 'Segoe UI', sans-serif; }
    </style>
    
    <rect width="100%" height="100%" class="bg" rx="10" />
    
    <text x="20" y="30" class="text-main" font-size="16">Atividade Recente (Privada &amp; Pública)</text>
    
    <!-- Cards -->
    <g transform="translate(20, 50)">
        <rect width="240" height="70" class="card" rx="6" />
        <text x="120" y="25" text-anchor="middle" class="text-sub">Total Commits (30d)</text>
        <text x="120" y="55" text-anchor="middle" class="num" fill="#2f81f7">159</text>
    </g>
    
    <g transform="translate(280, 50)">
        <rect width="240" height="70" class="card" rx="6" />
        <text x="120" y="25" text-anchor="middle" class="text-sub">Últimos 7 dias</text>
        <text x="120" y="55" text-anchor="middle" class="num" fill="#1DB954">0</text>
    </g>
    
    <g transform="translate(540, 50)">
        <rect width="240" height="70" class="card" rx="6" />
        <text x="120" y="25" text-anchor="middle" class="text-sub">Repositórios</text>
        <text x="120" y="55" text-anchor="middle" class="num" fill="#a371f7">46</text>
    </g>
    
    <rect x="40" y="140.0" width="18" height="0.0" fill="#21262d" rx="2" /><text x="49" y="155" font-family="Arial" font-size="9" fill="#6e7681" text-anchor="middle">13</text><rect x="64" y="138" width="18" height="2" fill="#1DB954" rx="2" /><rect x="88" y="140.0" width="18" height="0.0" fill="#21262d" rx="2" /><rect x="112" y="138" width="18" height="2" fill="#1DB954" rx="2" /><rect x="136" y="138" width="18" height="2" fill="#1DB954" rx="2" /><rect x="160" y="137.93103448275863" width="18" height="2.0689655172413794" fill="#1DB954" rx="2" /><text x="169" y="155" font-family="Arial" font-size="9" fill="#6e7681" text-anchor="middle">18</text><rect x="184" y="100.0" width="18" height="40.0" fill="#1DB954" rx="2" /><rect x="208" y="132.41379310344828" width="18" height="7.586206896551724" fill="#1DB954" rx="2" /><rect x="232" y="129.6551724137931" width="18" height="10.344827586206897" fill="#1DB954" rx="2" /><rect x="256" y="138" width="18" height="2" fill="#1DB954" rx="2" /><rect x="280" y="137.24137931034483" width="18" height="2.7586206896551726" fill="#1DB954" rx="2" /><text x="289" y="155" font-family="Arial" font-size="9" fill="#6e7681" text-anchor="middle">23</text><rect x="304" y="136.55172413793105" width="18" height="3.4482758620689657" fill="#1DB954" rx="2" /><rect x="328" y="135.86206896551724" width="18" height="4.137931034482759" fill="#1DB954" rx="2" /><rect x="352" y="137.93103448275863" width="18" height="2.0689655172413794" fill="#1DB954" rx="2" /><rect x="376" y="137.24137931034483" width="18" height="2.7586206896551726" fill="#1DB954" rx="2" /><rect x="400" y="131.72413793103448" width="18" height="8.275862068965518" fill="#1DB954" rx="2" /><text x="409" y="155" font-family="Arial" font-size="9" fill="#6e7681" text-anchor="middle">28</text><rect x="424" y="140.0" width="18" height="0.0" fill="#21262d" rx="2" /><rect x="448" y="140.0" width="18" height="0.0" fill="#21262d" rx="2" /><rect x="472" y="140.0" width="18" height="0.0" fill="#21262d" rx="2" /><rect x="496" y="135.86206896551724" width="18" height="4.137931034482759" fill="#1DB954" rx="2" /><rect x="520" y="138" width="18" height="2" fill="#1DB954" rx="2" /><text x="529" y="155" font-family="Arial" font-size="9" fill="#6e7681" text-anchor="middle">03</text><rect x="544" y="137.93103448275863" width="18" height="2.0689655172413794" fill="#1DB954" rx="2" /><rect x="568" y="123.44827586206897" width="18" height="16.551724137931036" fill="#1DB954" rx="2" /><rect x="592" y="140.0" width="18" height="0.0" fill="#21262d" rx="2" /><rect x="616" y="140.0" width="18" height="0.0" fill="#21262d" rx="2" /><rect x="640" y="140.0" width="18" height="0.0" fill="#21262d" rx="2" /><text x="649" y="155" font-family="Arial" font-size="9" fill="#6e7681" text-anchor="middle">08</text><rect x="664" y="140.0" width="18" height="0.0" fill="#21262d" rx="2" /><rect x="688" y="140.0" width="18" height="0.0" fill="#21262d" rx="2" /><rect x="712" y="140.0" width="18" height="0.0" fill="#21262d" rx="2" /><rect x="736" y="140.0" width="18" height="0.0" fill="#21262d" rx="2" />
</svg>
